<svg id="kity_svg_6" xmlns="http://www.w3.org/2000/svg" xmlns:xlink="http://www.w3.org/1999/xlink" version="1.1" width="618" height="336" style="background: rgb(251, 251, 251); display: inline;" viewBox="0 0 618 336"><defs id="kity_defs_7"><linearGradient id="kity_linearGradient_17" x1="0" y1="0" x2="0" y2="1"><stop id="kity_stop_18" offset="0" stop-color="rgb(255, 255, 255)"></stop><stop id="kity_stop_19" offset="1" stop-color="rgb(204, 204, 204)"></stop></linearGradient><marker id="kity_marker_2" orient="auto" refX="6" refY="0" viewBox="-7 -7 14 14" markerWidth="7" markerHeight="7" markerUnits="userSpaceOnUse"><path id="kity_path_3" fill="rgb(115, 161, 191)" stroke="none" d="M6,0A6,6,0,1,1,-6,0A6,6,0,1,1,6,0"></path></marker></defs><g id="kity_g_8"><g id="minder1" text-rendering="optimize-speed"><g id="minder_connect_group1"><path id="kity_path_31" fill="none" stroke="rgb(115, 161, 191)" stroke-width="1" d="M451.5,135.5C471.5,135.5,471.5,31.5,491.5,31.5"></path><path id="kity_path_39" fill="none" stroke="rgb(115, 161, 191)" stroke-width="1" d="M451.5,135.5C471.5,135.5,471.5,83.5,491.5,83.5"></path><path id="kity_path_47" fill="none" stroke="rgb(115, 161, 191)" stroke-width="1" d="M451.5,135.5C471.5,135.5,471.5,135.5,491.5,135.5"></path><path id="kity_path_55" fill="none" stroke="rgb(115, 161, 191)" stroke-width="1" d="M461.5,303.5C481.5,303.5,481.5,303.5,501.5,303.5"></path><path id="kity_path_71" fill="none" stroke="rgb(115, 161, 191)" stroke-width="1" d="M451.5,135.5C471.5,135.5,471.5,187.5,491.5,187.5"></path><path id="kity_path_79" fill="none" stroke="rgb(115, 161, 191)" stroke-width="1" d="M119,219A216.5,83.5,0,0,1,335.5,135.5"></path><path id="kity_path_87" fill="none" stroke="rgb(115, 161, 191)" stroke-width="1" d="M119,219A216.5,84.5,0,0,0,335.5,303.5"></path><path id="kity_path_106" fill="none" stroke="rgb(115, 161, 191)" stroke-width="1" d="M451.5,135.5C471.5,135.5,471.5,239.5,491.5,239.5"></path></g><g id="minder_node1"><path id="node_outline1" fill="rgb(115, 161, 191)" stroke="rgb(115, 161, 191)" d="M25.5,198.5h187a5,5,0,0,1,5,5v31a5,5,0,0,1,-5,5h-187a5,5,0,0,1,-5,-5v-31a5,5,0,0,1,5,-5z" stroke-width="3"></path><g id="node_text1" fill="white"><text id="kity_text_22" text-rendering="inherit" font-size="16" dy=".8em" y="208.09999990463257" x="44.5">stb_image_write</text></g><g id="kity_g_102" style="cursor: pointer;"><path id="kity_path_103" fill="none" stroke="none" d="M180,210h12a2,2,0,0,1,2,2v13a2,2,0,0,1,-2,2h-12a2,2,0,0,1,-2,-2v-13a2,2,0,0,1,2,-2z"></path><path id="kity_path_104" fill="white" stroke="none" d="M189,221H183V220h6L189,221L189,221zM189,219H183V218h6V219zM189,217H183V216h6V217zM188.5,223H182V214h8v7.5M189,224l2,-2V213H181v11"></path></g></g><g id="kity_g_14" display="none"><path id="kity_path_15" fill="rgba(0, 92, 153, 0.5)" stroke="none" d="M311.5,378.5h124v20h-124z"></path><path id="kity_path_16" fill="none" stroke="rgb(0, 76, 128)" d="M311.5,378.5L435.5,378.5" stroke-width="1"></path></g><g id="minder_node2" opacity="1"><g id="node_expander1" style="cursor: pointer;" display="none"><path id="kity_path_36" fill="white" stroke="gray" d="M491.5,31.5A6,6,0,1,1,479.5,31.5A6,6,0,1,1,491.5,31.5"></path><path id="kity_path_37" fill="none" stroke="gray"></path></g><path id="node_outline2" fill="none" stroke="none" d="M496.5,20.5h93a5,5,0,0,1,5,5v12a5,5,0,0,1,-5,5h-93a5,5,0,0,1,-5,-5v-12a5,5,0,0,1,5,-5z" stroke-width="3"></path><g id="node_text2" fill="black"><text id="kity_text_33" text-rendering="inherit" font-size="12" dy=".8em" y="23.700000047683716" x="501.5">stbi_write_png</text></g></g><g id="minder_node3" opacity="1"><g id="node_expander2" style="cursor: pointer;" display="none"><path id="kity_path_44" fill="white" stroke="gray" d="M491.5,83.5A6,6,0,1,1,479.5,83.5A6,6,0,1,1,491.5,83.5"></path><path id="kity_path_45" fill="none" stroke="gray"></path></g><path id="node_outline3" fill="none" stroke="none" d="M496.5,72.5h89a5,5,0,0,1,5,5v12a5,5,0,0,1,-5,5h-89a5,5,0,0,1,-5,-5v-12a5,5,0,0,1,5,-5z" stroke-width="3"></path><g id="node_text3" fill="black"><text id="kity_text_41" text-rendering="inherit" font-size="12" dy=".8em" y="75.70000004768372" x="501.5">stbi_write_tga</text></g></g><g id="minder_node4" opacity="1"><g id="node_expander3" style="cursor: pointer;" display="none"><path id="kity_path_52" fill="white" stroke="gray" d="M491.5,135.5A6,6,0,1,1,479.5,135.5A6,6,0,1,1,491.5,135.5"></path><path id="kity_path_53" fill="none" stroke="gray"></path></g><path id="node_outline4" fill="none" stroke="none" d="M496.5,124.5h97a5,5,0,0,1,5,5v12a5,5,0,0,1,-5,5h-97a5,5,0,0,1,-5,-5v-12a5,5,0,0,1,5,-5z" stroke-width="3"></path><g id="node_text4" fill="black"><text id="kity_text_49" text-rendering="inherit" font-size="12" dy=".8em" y="127.70000004768372" x="501.5">stbi_write_bmp</text></g></g><g id="minder_node5" opacity="1"><g id="node_expander4" style="cursor: pointer;" display="none"><path id="kity_path_60" fill="white" stroke="gray" d="M501.5,303.5A6,6,0,1,1,489.5,303.5A6,6,0,1,1,501.5,303.5"></path><path id="kity_path_61" fill="none" stroke="gray" d="M491,303.5L500,303.5"></path></g><path id="node_outline5" fill="none" stroke="none" d="M506.5,292.5h86a5,5,0,0,1,5,5v12a5,5,0,0,1,-5,5h-86a5,5,0,0,1,-5,-5v-12a5,5,0,0,1,5,-5z" stroke-width="3"></path><g id="node_text5" fill="black"><text id="kity_text_57" text-rendering="inherit" font-size="12" dy=".8em" y="295.7000000476837" x="511.5">stbi_write_gif</text></g></g><g id="minder_node7" opacity="1"><g id="node_expander6" style="cursor: pointer;" display="none"><path id="kity_path_76" fill="white" stroke="gray" d="M491.5,187.5A6,6,0,1,1,479.5,187.5A6,6,0,1,1,491.5,187.5"></path><path id="kity_path_77" fill="none" stroke="gray"></path></g><path id="node_outline7" fill="none" stroke="none" d="M496.5,176.5h90a5,5,0,0,1,5,5v12a5,5,0,0,1,-5,5h-90a5,5,0,0,1,-5,-5v-12a5,5,0,0,1,5,-5z" stroke-width="3"></path><g id="node_text7" fill="black"><text id="kity_text_73" text-rendering="inherit" font-size="12" dy=".8em" y="179.70000004768372" x="501.5">stbi_write_svg</text></g></g><g id="minder_node8"><g id="node_expander7" style="cursor: pointer;"><path id="kity_path_84" fill="white" stroke="gray" d="M336.5,135.5A6,6,0,1,1,324.5,135.5A6,6,0,1,1,336.5,135.5"></path><path id="kity_path_85" fill="none" stroke="gray" d="M326,135.5L335,135.5"></path></g><path id="node_outline8" fill="rgb(238, 243, 246)" stroke="rgb(115, 161, 191)" d="M340.5,122.5h108a3,3,0,0,1,3,3v20a3,3,0,0,1,-3,3h-108a3,3,0,0,1,-3,-3v-20a3,3,0,0,1,3,-3z" stroke-width="1"></path><g id="node_text8" fill="black"><text id="kity_text_81" text-rendering="inherit" font-size="14" dy=".8em" y="126.40000009536743" x="357.5">SigleFrame</text></g></g><g id="minder_node9"><g id="node_expander8" style="cursor: pointer;"><path id="kity_path_92" fill="white" stroke="gray" d="M336.5,303.5A6,6,0,1,1,324.5,303.5A6,6,0,1,1,336.5,303.5"></path><path id="kity_path_93" fill="none" stroke="gray" d="M326,303.5L335,303.5"></path></g><path id="node_outline9" fill="rgb(238, 243, 246)" stroke="rgb(115, 161, 191)" d="M340.5,290.5h118a3,3,0,0,1,3,3v20a3,3,0,0,1,-3,3h-118a3,3,0,0,1,-3,-3v-20a3,3,0,0,1,3,-3z" stroke-width="1"></path><g id="node_text9" fill="black"><text id="kity_text_89" text-rendering="inherit" font-size="14" dy=".8em" y="294.40000009536743" x="357.5">MutilFrames</text></g></g><g id="kity_g_12" display="none"><path id="kity_path_13" fill="none" stroke="rgb(66, 94, 112)" d="M314.5,347.5h118a3,3,0,0,1,3,3v20a3,3,0,0,1,-3,3h-118a3,3,0,0,1,-3,-3v-20a3,3,0,0,1,3,-3z" stroke-width="5"></path></g><g id="minder_node11"><g id="node_expander10" style="cursor: pointer;" display="none"><path id="kity_path_111" fill="white" stroke="gray" d="M491.5,239.5A6,6,0,1,1,479.5,239.5A6,6,0,1,1,491.5,239.5"></path><path id="kity_path_112" fill="none" stroke="gray"></path></g><path id="node_outline11" fill="none" stroke="none" d="M496.5,228.5h91a5,5,0,0,1,5,5v12a5,5,0,0,1,-5,5h-91a5,5,0,0,1,-5,-5v-12a5,5,0,0,1,5,-5z" stroke-width="3"></path><g id="node_text11" fill="black"><text id="kity_text_108" text-rendering="inherit" font-size="12" dy=".8em" y="231.70000004768372" x="501.5">stbi_write_psd</text></g></g></g></g></svg>